<svg width="212" height="100" viewBox="0 0 212 100" fill="none" xmlns="http://www.w3.org/2000/svg">
<path d="M70.9074 7.45098V91.9126H2.12891V7.45098H70.9074Z" fill="#50ACED"/>
<path d="M209.281 7.45098V91.9126H140.488V7.45098H209.281Z" fill="#50ACED"/>
<path d="M70.9434 7.45098V91.9126H70.9297V7.45098H70.9434Z" fill="#50ACED"/>
<path d="M209.282 48.5977H142.662V7.44871H209.282V48.5977ZM209.282 91.9103H142.662V50.6791H209.282V91.9103ZM70.9376 91.9103V7.44871H140.489V91.9103H70.9376ZM2.17285 91.9103V50.6791H68.7648V91.9103H2.17285ZM2.17285 7.44871H68.7648V48.5977H2.17285V7.44871ZM0 5.36728V93.9917H211.455V5.36728H0Z" fill="white"/>
<path d="M70.9512 91.9126H140.489V7.45098H70.9512V91.9126Z" fill="#A6E08C"/>
<path d="M102.802 99.4712H100.629V0.00161743H102.802V99.4712Z" fill="white"/>
<path d="M102.807 99.4712V93.9949H105.888V96.029L102.807 99.4712Z" fill="#82BD64"/>
<path d="M105.888 93.9912H102.807V91.9098H105.887L105.888 93.9912Z" fill="#AACB98"/>
<path d="M105.878 5.36865H102.807V-0.000238419L105.877 3.43855L105.878 5.36865Z" fill="#82BD64"/>
<path d="M102.807 7.44971H105.878V5.36832H102.807V7.44971Z" fill="#AACB98"/>
<path d="M105.887 91.9126H102.807V7.45098H105.878L105.887 91.9126Z" fill="#82BD64"/>
<path d="M34.13 26.1611H36.6089C38.1002 26.1611 39.3498 26.4331 40.3575 26.9773C41.3651 27.5214 42.131 28.2873 42.655 29.2748C43.1991 30.2623 43.4712 31.4212 43.4712 32.7513C43.4712 34.2024 43.189 35.462 42.6247 36.5301C42.0604 37.5781 41.2644 38.3943 40.2365 38.9788C39.2289 39.5633 38.0196 39.8555 36.6089 39.8555C35.5609 39.8555 34.6338 39.7446 33.8277 39.5229C33.0417 39.3214 32.3665 39.0695 31.8022 38.7672C31.2581 38.4447 30.8248 38.1424 30.5023 37.8603V34.2024H30.8046C30.986 34.3838 31.3185 34.6558 31.8022 35.0186C32.2859 35.3612 32.8905 35.6837 33.616 35.986C34.3617 36.2883 35.1679 36.4394 36.0345 36.4394C37.1228 36.4394 37.9793 36.1472 38.6041 35.5628C39.249 34.9783 39.5715 34.152 39.5715 33.0838C39.5715 32.3583 39.3901 31.7336 39.0273 31.2096C38.6847 30.6654 38.1708 30.2422 37.4856 29.9399C36.8003 29.6376 35.9539 29.4864 34.9462 29.4864H30.5023V27.9144V18.3616H42.3224V21.9892H34.13V26.1611Z" fill="#FFF7EE"/>
</svg>
