<svg width="212" height="100" viewBox="0 0 212 100" fill="none" xmlns="http://www.w3.org/2000/svg">
<path d="M70.9074 7.45098V91.9126H2.12891V7.45098H70.9074Z" fill="#50ACED"/>
<path d="M209.281 7.45098V91.9126H140.488V7.45098H209.281Z" fill="#50ACED"/>
<path d="M70.9434 7.45098V91.9126H70.9297V7.45098H70.9434Z" fill="#50ACED"/>
<path d="M209.282 48.5977H142.662V7.44871H209.282V48.5977ZM209.282 91.9103H142.662V50.6791H209.282V91.9103ZM70.9376 91.9103V7.44871H140.489V91.9103H70.9376ZM2.17285 91.9103V50.6791H68.7648V91.9103H2.17285ZM2.17285 7.44871H68.7648V48.5977H2.17285V7.44871ZM0 5.36728V93.9917H211.455V5.36728H0Z" fill="white"/>
<path d="M70.9512 91.9126H140.489V7.45098H70.9512V91.9126Z" fill="#A6E08C"/>
<path d="M102.802 99.4712H100.629V0.00161743H102.802V99.4712Z" fill="white"/>
<path d="M102.807 99.4712V93.9949H105.888V96.029L102.807 99.4712Z" fill="#82BD64"/>
<path d="M105.888 93.9912H102.807V91.9098H105.887L105.888 93.9912Z" fill="#AACB98"/>
<path d="M105.878 5.36865H102.807V-0.000238419L105.877 3.43855L105.878 5.36865Z" fill="#82BD64"/>
<path d="M102.807 7.44971H105.878V5.36832H102.807V7.44971Z" fill="#AACB98"/>
<path d="M105.887 91.9126H102.807V7.45098H105.878L105.887 91.9126Z" fill="#82BD64"/>
<path d="M30.0308 32.0258C30.0308 30.4336 30.2928 28.8818 30.8168 27.3703C31.3408 25.8588 32.026 24.3775 32.8725 22.9264C33.2352 22.3419 33.6182 21.7474 34.0212 21.1428C34.4243 20.518 34.8374 19.9336 35.2607 19.3894C35.7041 18.8453 36.1172 18.3817 36.5001 17.9988H40.4603V18.3616C40.0371 18.8251 39.5635 19.3995 39.0395 20.0847C38.5155 20.7498 38.0016 21.4451 37.4977 22.1706C36.9939 22.876 36.5304 23.5512 36.1071 24.1961C35.7041 24.841 35.4118 25.3851 35.2304 25.8285L35.2909 26.1006C35.6738 25.8386 36.1071 25.6169 36.5908 25.4355C37.0947 25.2541 37.7597 25.1635 38.586 25.1635C39.6945 25.1635 40.7223 25.4456 41.6695 26.0099C42.6168 26.5541 43.3826 27.34 43.9671 28.3679C44.5515 29.3756 44.8438 30.5949 44.8438 32.0258C44.8438 33.6582 44.5011 35.0388 43.8159 36.1674C43.1508 37.2758 42.254 38.1122 41.1254 38.6765C40.0169 39.2408 38.7876 39.5229 37.4373 39.5229C36.087 39.5229 34.8475 39.2408 33.7189 38.6765C32.5903 38.1122 31.6935 37.2758 31.0284 36.1674C30.3633 35.0388 30.0308 33.6582 30.0308 32.0258ZM33.8398 31.9351C33.8398 32.6203 33.9708 33.2652 34.2328 33.8698C34.515 34.4543 34.9281 34.9178 35.4723 35.2604C36.0164 35.6031 36.6714 35.7744 37.4373 35.7744C38.2031 35.7744 38.848 35.6131 39.372 35.2907C39.896 34.9481 40.2991 34.4845 40.5812 33.9001C40.8836 33.3156 41.0347 32.6505 41.0347 31.9049C41.0347 31.1995 40.8936 30.5646 40.6115 30.0003C40.3293 29.4159 39.9162 28.9523 39.372 28.6097C38.848 28.247 38.2132 28.0656 37.4675 28.0656C36.6815 28.0656 36.0164 28.247 35.4723 28.6097C34.9281 28.9725 34.515 29.4461 34.2328 30.0306C33.9708 30.615 33.8398 31.2499 33.8398 31.9351Z" fill="#FFF7EE"/>
</svg>
