<svg width="212" height="100" viewBox="0 0 212 100" fill="none" xmlns="http://www.w3.org/2000/svg">
<path d="M70.9074 7.45098V91.9126H2.12891V7.45098H70.9074Z" fill="#50ACED"/>
<path d="M209.281 7.45098V91.9126H140.488V7.45098H209.281Z" fill="#50ACED"/>
<path d="M70.9434 7.45098V91.9126H70.9297V7.45098H70.9434Z" fill="#50ACED"/>
<path d="M209.282 48.5977H142.662V7.44871H209.282V48.5977ZM209.282 91.9103H142.662V50.6791H209.282V91.9103ZM70.9376 91.9103V7.44871H140.489V91.9103H70.9376ZM2.17285 91.9103V50.6791H68.7648V91.9103H2.17285ZM2.17285 7.44871H68.7648V48.5977H2.17285V7.44871ZM0 5.36728V93.9917H211.455V5.36728H0Z" fill="white"/>
<path d="M70.9512 91.9126H140.489V7.45098H70.9512V91.9126Z" fill="#A6E08C"/>
<path d="M102.802 99.4712H100.629V0.00161743H102.802V99.4712Z" fill="white"/>
<path d="M102.807 99.4712V93.9949H105.888V96.029L102.807 99.4712Z" fill="#82BD64"/>
<path d="M105.888 93.9912H102.807V91.9098H105.887L105.888 93.9912Z" fill="#AACB98"/>
<path d="M105.878 5.36865H102.807V-0.000238419L105.877 3.43855L105.878 5.36865Z" fill="#82BD64"/>
<path d="M102.807 7.44971H105.878V5.36832H102.807V7.44971Z" fill="#AACB98"/>
<path d="M105.887 91.9126H102.807V7.45098H105.878L105.887 91.9126Z" fill="#82BD64"/>
<path d="M35.785 29.8794H34.0316V27.4005L38.8383 22.2916V21.9892H31.2504V18.3616H43.4635V21.7474L38.1732 27.34V27.5819C39.2212 27.6625 40.1684 27.9245 41.0149 28.3679C41.8613 28.7911 42.5365 29.4159 43.0403 30.2422C43.5643 31.0483 43.8263 32.0762 43.8263 33.3257C43.8263 34.7969 43.5038 36.0162 42.8589 36.9836C42.2342 37.9308 41.3978 38.6463 40.3498 39.13C39.3018 39.6136 38.1631 39.8555 36.9337 39.8555C35.8051 39.8555 34.8478 39.7446 34.0618 39.5229C33.2759 39.3214 32.6209 39.0695 32.0969 38.7672C31.593 38.4447 31.1799 38.1424 30.8574 37.8603V34.2024H31.1597C31.3411 34.3838 31.6736 34.6558 32.1573 35.0186C32.641 35.3612 33.2456 35.6837 33.9712 35.986C34.7168 36.2883 35.5129 36.4394 36.3594 36.4394C37.3671 36.4394 38.2135 36.1674 38.8987 35.6232C39.584 35.0791 39.9266 34.2628 39.9266 33.1745C39.9266 32.0258 39.5537 31.1894 38.808 30.6654C38.0624 30.1414 37.0547 29.8794 35.785 29.8794Z" fill="#FFF7EE"/>
</svg>
