<svg width="212" height="100" viewBox="0 0 212 100" fill="none" xmlns="http://www.w3.org/2000/svg">
<path d="M70.9074 7.45098V91.9126H2.12891V7.45098H70.9074Z" fill="#50ACED"/>
<path d="M209.281 7.45098V91.9126H140.488V7.45098H209.281Z" fill="#50ACED"/>
<path d="M70.9434 7.45098V91.9126H70.9297V7.45098H70.9434Z" fill="#50ACED"/>
<path d="M209.282 48.5977H142.662V7.44871H209.282V48.5977ZM209.282 91.9103H142.662V50.6791H209.282V91.9103ZM70.9376 91.9103V7.44871H140.489V91.9103H70.9376ZM2.17285 91.9103V50.6791H68.7648V91.9103H2.17285ZM2.17285 7.44871H68.7648V48.5977H2.17285V7.44871ZM0 5.36728V93.9917H211.455V5.36728H0Z" fill="white"/>
<path d="M70.9512 91.9126H140.489V7.45098H70.9512V91.9126Z" fill="#A6E08C"/>
<path d="M102.802 99.4712H100.629V0.00161743H102.802V99.4712Z" fill="white"/>
<path d="M102.807 99.4712V93.9949H105.888V96.029L102.807 99.4712Z" fill="#82BD64"/>
<path d="M105.888 93.9912H102.807V91.9098H105.887L105.888 93.9912Z" fill="#AACB98"/>
<path d="M105.878 5.36865H102.807V-0.000238419L105.877 3.43855L105.878 5.36865Z" fill="#82BD64"/>
<path d="M102.807 7.44971H105.878V5.36832H102.807V7.44971Z" fill="#AACB98"/>
<path d="M105.887 91.9126H102.807V7.45098H105.878L105.887 91.9126Z" fill="#82BD64"/>
<path d="M38.8433 39.5229V23.2287L33.5228 31.0584V31.4212H44.7685V34.6558H29.8044V31.0584L38.3597 18.3616H42.5617V39.5229H38.8433Z" fill="#FFF7EE"/>
</svg>
