<svg width="212" height="100" viewBox="0 0 212 100" fill="none" xmlns="http://www.w3.org/2000/svg">
<path d="M70.9074 7.45098V91.9126H2.12891V7.45098H70.9074Z" fill="#50ACED"/>
<path d="M209.281 7.45098V91.9126H140.488V7.45098H209.281Z" fill="#50ACED"/>
<path d="M70.9434 7.45098V91.9126H70.9297V7.45098H70.9434Z" fill="#50ACED"/>
<path d="M209.282 48.5977H142.662V7.44871H209.282V48.5977ZM209.282 91.9103H142.662V50.6791H209.282V91.9103ZM70.9376 91.9103V7.44871H140.489V91.9103H70.9376ZM2.17285 91.9103V50.6791H68.7648V91.9103H2.17285ZM2.17285 7.44871H68.7648V48.5977H2.17285V7.44871ZM0 5.36728V93.9917H211.455V5.36728H0Z" fill="white"/>
<path d="M70.9512 91.9126H140.489V7.45098H70.9512V91.9126Z" fill="#A6E08C"/>
<path d="M102.802 99.4712H100.629V0.00161743H102.802V99.4712Z" fill="white"/>
<path d="M102.807 99.4712V93.9949H105.888V96.029L102.807 99.4712Z" fill="#82BD64"/>
<path d="M105.888 93.9912H102.807V91.9098H105.887L105.888 93.9912Z" fill="#AACB98"/>
<path d="M105.878 5.36865H102.807V-0.000238419L105.877 3.43855L105.878 5.36865Z" fill="#82BD64"/>
<path d="M102.807 7.44971H105.878V5.36832H102.807V7.44971Z" fill="#AACB98"/>
<path d="M105.887 91.9126H102.807V7.45098H105.878L105.887 91.9126Z" fill="#82BD64"/>
<path d="M43.6597 23.9542C43.6597 24.9216 43.5085 25.8386 43.2062 26.7052C42.9039 27.5718 42.4404 28.4485 41.8156 29.3353C41.211 30.2019 40.4452 31.1491 39.5181 32.1769L36.223 35.6232V35.9255H43.5388V39.5229H30.9024V36.1674C32.5349 34.5752 33.8952 33.2148 34.9835 32.0862C36.0718 30.9375 36.9384 29.9701 37.5833 29.1841C38.2484 28.378 38.7422 27.7028 39.0646 27.1587C39.3871 26.5944 39.5987 26.0905 39.6995 25.6471C39.8003 25.2038 39.8506 24.7705 39.8506 24.3472C39.8506 23.4403 39.5584 22.7349 38.974 22.2311C38.3895 21.7272 37.5833 21.4753 36.5555 21.4753C35.8501 21.4753 35.1649 21.6063 34.4998 21.8683C33.8348 22.1102 33.2402 22.4024 32.7162 22.745C32.2124 23.0876 31.8194 23.4 31.5372 23.6822H31.0233V19.994C31.5473 19.5507 32.3232 19.1073 33.3511 18.6639C34.3991 18.2205 35.6788 17.9988 37.1904 17.9988C38.0167 17.9988 38.8127 18.1197 39.5786 18.3616C40.3646 18.5833 41.0599 18.936 41.6645 19.4197C42.2892 19.8832 42.7729 20.4979 43.1155 21.2637C43.4783 22.0094 43.6597 22.9062 43.6597 23.9542Z" fill="#FFF7EE"/>
</svg>
