<svg width="212" height="100" viewBox="0 0 212 100" fill="none" xmlns="http://www.w3.org/2000/svg">
<path d="M70.9074 7.45098V91.9126H2.12891V7.45098H70.9074Z" fill="#50ACED"/>
<path d="M209.281 7.45098V91.9126H140.488V7.45098H209.281Z" fill="#50ACED"/>
<path d="M70.9434 7.45098V91.9126H70.9297V7.45098H70.9434Z" fill="#50ACED"/>
<path d="M209.282 48.5977H142.662V7.44871H209.282V48.5977ZM209.282 91.9103H142.662V50.6791H209.282V91.9103ZM70.9376 91.9103V7.44871H140.489V91.9103H70.9376ZM2.17285 91.9103V50.6791H68.7648V91.9103H2.17285ZM2.17285 7.44871H68.7648V48.5977H2.17285V7.44871ZM0 5.36728V93.9917H211.455V5.36728H0Z" fill="white"/>
<path d="M70.9512 91.9126H140.489V7.45098H70.9512V91.9126Z" fill="#A6E08C"/>
<path d="M102.802 99.4712H100.629V0.00161743H102.802V99.4712Z" fill="white"/>
<path d="M102.807 99.4712V93.9949H105.888V96.029L102.807 99.4712Z" fill="#82BD64"/>
<path d="M105.888 93.9912H102.807V91.9098H105.887L105.888 93.9912Z" fill="#AACB98"/>
<path d="M105.878 5.36865H102.807V-0.000238419L105.877 3.43855L105.878 5.36865Z" fill="#82BD64"/>
<path d="M102.807 7.44971H105.878V5.36832H102.807V7.44971Z" fill="#AACB98"/>
<path d="M105.887 91.9126H102.807V7.45098H105.878L105.887 91.9126Z" fill="#82BD64"/>
<path d="M36.796 39.8857C35.2442 39.8857 33.8838 39.6136 32.7149 39.0695C31.546 38.5052 30.629 37.7393 29.9639 36.772C29.319 35.7844 28.9966 34.6659 28.9966 33.4164C28.9966 32.5699 29.1376 31.8242 29.4198 31.1793C29.7221 30.5344 30.0849 29.9903 30.5081 29.5469C30.9313 29.0833 31.3545 28.7206 31.7778 28.4586C32.2212 28.1764 32.6041 27.995 32.9265 27.9144V27.6726C32.5436 27.5315 32.1204 27.2997 31.6569 26.9773C31.1933 26.6347 30.7802 26.1611 30.4174 25.5564C30.0748 24.9518 29.9035 24.186 29.9035 23.2589C29.9035 22.2714 30.1756 21.3846 30.7197 20.5986C31.2639 19.7925 32.0498 19.1577 33.0777 18.6941C34.1055 18.2306 35.345 17.9988 36.796 17.9988C38.2673 17.9988 39.5168 18.2306 40.5446 18.6941C41.5725 19.1577 42.3585 19.7925 42.9026 20.5986C43.4468 21.3846 43.7188 22.2714 43.7188 23.2589C43.7188 24.186 43.5374 24.9518 43.1747 25.5564C42.8321 26.1611 42.4189 26.6347 41.9352 26.9773C41.4717 27.2997 41.0485 27.5315 40.6655 27.6726V27.9144C40.988 27.995 41.3709 28.1764 41.8143 28.4586C42.2577 28.7206 42.691 29.0833 43.1142 29.5469C43.5374 29.9903 43.8901 30.5344 44.1723 31.1793C44.4544 31.8242 44.5955 32.5699 44.5955 33.4164C44.5955 34.6659 44.2731 35.7844 43.6281 36.772C42.9832 37.7393 42.0763 38.5052 40.9074 39.0695C39.7385 39.6136 38.368 39.8857 36.796 39.8857ZM36.796 30.1213C36.0302 30.1213 35.3551 30.2422 34.7706 30.484C34.1861 30.7259 33.7226 31.0786 33.38 31.5421C33.0575 32.0056 32.8963 32.5599 32.8963 33.2048C32.8963 33.8698 33.0676 34.4543 33.4102 34.9581C33.773 35.4418 34.2466 35.8147 34.8311 36.0767C35.4155 36.3185 36.0705 36.4394 36.796 36.4394C37.5014 36.4394 38.1463 36.3185 38.7308 36.0767C39.3354 35.8147 39.8191 35.4418 40.1819 34.9581C40.5446 34.4543 40.726 33.8698 40.726 33.2048C40.726 32.5599 40.5446 32.0056 40.1819 31.5421C39.8191 31.0786 39.3354 30.7259 38.7308 30.484C38.1463 30.2422 37.5014 30.1213 36.796 30.1213ZM36.796 26.675C37.8037 26.675 38.6099 26.4331 39.2145 25.9494C39.8191 25.4658 40.1214 24.8007 40.1214 23.9542C40.1214 23.0876 39.809 22.4125 39.1843 21.9288C38.5595 21.4451 37.7634 21.2033 36.796 21.2033C35.8488 21.2033 35.0628 21.4451 34.4381 21.9288C33.8133 22.4125 33.5009 23.0876 33.5009 23.9542C33.5009 24.8007 33.8032 25.4658 34.4078 25.9494C35.0124 26.4331 35.8085 26.675 36.796 26.675Z" fill="#FFF7EE"/>
</svg>
