<svg xmlns="http://www.w3.org/2000/svg" width="52" height="52" viewBox="0 0 52 52" fill="none">
  <path d="M26 50.9167C12.2389 50.9167 1.08333 39.7611 1.08333 26C1.08333 12.2389 12.2389 1.08333 26 1.08333C39.7611 1.08333 50.9167 12.2389 50.9167 26C50.9167 39.7611 39.7611 50.9167 26 50.9167Z" fill="#E81827" stroke="white" stroke-width="2.16667"/>
  <path d="M37.5019 14.763C36.5019 13.763 34.8019 13.763 33.8019 14.763L26.1019 22.263L18.4019 14.663C17.4019 13.763 15.7019 13.763 14.7019 14.763C13.7019 15.763 13.8019 17.363 14.8019 18.363L22.4019 25.863L14.8019 33.263C13.8019 34.263 13.7019 35.863 14.7019 36.863C15.2019 37.463 15.9019 37.663 16.6019 37.663C17.2019 37.663 17.9019 37.463 18.4019 36.963L26.1019 29.463L33.8019 36.963C34.3019 37.463 35.0019 37.663 35.6019 37.663C36.3019 37.663 36.9019 37.463 37.4019 36.963C38.4019 35.863 38.4019 34.263 37.4019 33.263L29.8019 25.863L37.4019 18.363C38.4019 17.363 38.5019 15.763 37.5019 14.763Z" fill="url(#paint0_linear_561_218)"/>
  <defs>
    <linearGradient id="paint0_linear_561_218" x1="62.8099" y1="13.645" x2="23.738" y2="51.1011" gradientUnits="userSpaceOnUse">
      <stop stop-color="white"/>
      <stop offset="1" stop-color="white"/>
    </linearGradient>
  </defs>
</svg>