<svg version="1.2" xmlns="http://www.w3.org/2000/svg" viewBox="0 0 146 145" width="146" height="145">
	<title>Mask group</title>
	<style>
		.s0 { fill: #e7e7e7 } 
		.s1 { fill: #b0b6b7 } 
	</style>
	<g id="Folder 1">
		<path id="&lt;Path&gt;" class="s0" d="m145 72.5c0 19.5-7.7 37.1-20.1 50.1-13.2 13.8-31.8 22.4-52.4 22.4-20.6 0-39.2-8.6-52.4-22.4-12.4-13-20.1-30.6-20.1-50.1 0-40 32.5-72.5 72.5-72.5 40 0 72.5 32.5 72.5 72.5z"/>
		<path id="&lt;Path&gt;" fill-rule="evenodd" class="s1" d="m72.5 76.4c-16.4 0-29.6-13.2-29.6-29.6 0-16.4 13.2-29.6 29.6-29.6 16.4 0 29.6 13.2 29.6 29.6 0 16.4-13.2 29.6-29.6 29.6z"/>
		<path id="&lt;Path&gt;" class="s1" d="m122.4 116.7q-0.9 0.9-1.8 1.9c-12.1 12.6-29.2 20.5-48.1 20.5-18.9 0-36-7.9-48.1-20.5q-0.9-1-1.8-1.9c0-20.6 11.9-31.4 49.9-31.4 39.4 0 49.9 12.7 49.9 31.4z"/>
	</g>
</svg>